solid OpenSCAD_Model
  facet normal -1 0 0
    outer loop
      vertex 0 45 0
      vertex 0 36 8
      vertex 0 45 8
    endloop
  endfacet
  facet normal -1 0 0
    outer loop
      vertex 0 36 8
      vertex 0 26 8
      vertex 0 36 10
    endloop
  endfacet
  facet normal -1 0 0
    outer loop
      vertex 0 45 0
      vertex 0 26 8
      vertex 0 36 8
    endloop
  endfacet
  facet normal -1 0 0
    outer loop
      vertex 0 45 0
      vertex 0 23 7
      vertex 0 26 8
    endloop
  endfacet
  facet normal -1 0 0
    outer loop
      vertex 0 0 0
      vertex 0 23 7
      vertex 0 45 0
    endloop
  endfacet
  facet normal -1 -0 0
    outer loop
      vertex 0 23 7
      vertex 0 0 0
      vertex 0 3 7
    endloop
  endfacet
  facet normal -1 0 0
    outer loop
      vertex 0 0 8
      vertex 0 3 7
      vertex 0 0 0
    endloop
  endfacet
  facet normal -1 0 0
    outer loop
      vertex 0 3 7
      vertex 0 0 8
      vertex 0 3 8
    endloop
  endfacet
  facet normal -1 -0 0
    outer loop
      vertex 0 36 10
      vertex 0 26 8
      vertex 0 26 10
    endloop
  endfacet
  facet normal -1 -0 0
    outer loop
      vertex 0 26 8
      vertex 0 23 7
      vertex 0 23 8
    endloop
  endfacet
  facet normal -0 0 1
    outer loop
      vertex 0 3 8
      vertex 20 0 8
      vertex 20 3 8
    endloop
  endfacet
  facet normal 0 0 1
    outer loop
      vertex 20 0 8
      vertex 0 3 8
      vertex 0 0 8
    endloop
  endfacet
  facet normal -0 0 1
    outer loop
      vertex 0 45 8
      vertex 20 36 8
      vertex 20 45 8
    endloop
  endfacet
  facet normal 0 0 1
    outer loop
      vertex 20 36 8
      vertex 0 45 8
      vertex 0 36 8
    endloop
  endfacet
  facet normal -0 0 1
    outer loop
      vertex 18.3 26 8
      vertex 20 23 8
      vertex 20 26 8
    endloop
  endfacet
  facet normal -0 0 1
    outer loop
      vertex 1.9 26 8
      vertex 20 23 8
      vertex 18.3 26 8
    endloop
  endfacet
  facet normal 0 0 1
    outer loop
      vertex 0 23 8
      vertex 1.9 26 8
      vertex 0 26 8
    endloop
  endfacet
  facet normal 0 0 1
    outer loop
      vertex 1.9 26 8
      vertex 0 23 8
      vertex 20 23 8
    endloop
  endfacet
  facet normal 1 0 0
    outer loop
      vertex 20 3 8
      vertex 20 0 8
      vertex 20 3 7
    endloop
  endfacet
  facet normal 1 0 0
    outer loop
      vertex 20 36 10
      vertex 20 26 10
      vertex 20 36 8
    endloop
  endfacet
  facet normal 1 -0 0
    outer loop
      vertex 20 36 8
      vertex 20 45 0
      vertex 20 45 8
    endloop
  endfacet
  facet normal 1 0 0
    outer loop
      vertex 20 26 8
      vertex 20 36 8
      vertex 20 26 10
    endloop
  endfacet
  facet normal 1 0 0
    outer loop
      vertex 20 36 8
      vertex 20 26 8
      vertex 20 45 0
    endloop
  endfacet
  facet normal 1 0 0
    outer loop
      vertex 20 23 7
      vertex 20 26 8
      vertex 20 23 8
    endloop
  endfacet
  facet normal 1 0 0
    outer loop
      vertex 20 26 8
      vertex 20 23 7
      vertex 20 45 0
    endloop
  endfacet
  facet normal 1 0 0
    outer loop
      vertex 20 0 0
      vertex 20 23 7
      vertex 20 3 7
    endloop
  endfacet
  facet normal 1 0 0
    outer loop
      vertex 20 23 7
      vertex 20 0 0
      vertex 20 45 0
    endloop
  endfacet
  facet normal 1 0 0
    outer loop
      vertex 20 0 0
      vertex 20 3 7
      vertex 20 0 8
    endloop
  endfacet
  facet normal 0 0 -1
    outer loop
      vertex 0 0 0
      vertex 2 45 0
      vertex 2 0 0
    endloop
  endfacet
  facet normal -0 0 -1
    outer loop
      vertex 2 45 0
      vertex 0 0 0
      vertex 0 45 0
    endloop
  endfacet
  facet normal 0 0 -1
    outer loop
      vertex 2 0 0
      vertex 18 0 0
      vertex 18 -1.5 0
    endloop
  endfacet
  facet normal 0 0 -1
    outer loop
      vertex 18 0 0
      vertex 2 0 0
      vertex 18 45 0
    endloop
  endfacet
  facet normal 0 0 -1
    outer loop
      vertex 2 0 0
      vertex 18 -1.5 0
      vertex 2 -1.5 0
    endloop
  endfacet
  facet normal 0 0 -1
    outer loop
      vertex 2 45 0
      vertex 18 45 0
      vertex 2 0 0
    endloop
  endfacet
  facet normal 0 0 -1
    outer loop
      vertex 18 45 0
      vertex 2 45 0
      vertex 18 46.5 0
    endloop
  endfacet
  facet normal -0 0 -1
    outer loop
      vertex 18 46.5 0
      vertex 2 45 0
      vertex 2 46.5 0
    endloop
  endfacet
  facet normal 0 0 -1
    outer loop
      vertex 18 0 0
      vertex 20 45 0
      vertex 20 0 0
    endloop
  endfacet
  facet normal -0 0 -1
    outer loop
      vertex 20 45 0
      vertex 18 0 0
      vertex 18 45 0
    endloop
  endfacet
  facet normal 0 -1 0
    outer loop
      vertex 17.3 0 5.5
      vertex 17.3 0 2
      vertex 19.3094 0 5.5
    endloop
  endfacet
  facet normal 0 -1 0
    outer loop
      vertex 0 0 8
      vertex 0.690598 0 7
      vertex 20 0 8
    endloop
  endfacet
  facet normal 0 -1 0
    outer loop
      vertex 0 0 8
      vertex 0.690598 0 5.5
      vertex 0.690598 0 7
    endloop
  endfacet
  facet normal 0 -1 0
    outer loop
      vertex 0.690598 0 5.5
      vertex 2.9 0 2
      vertex 2.9 0 5.5
    endloop
  endfacet
  facet normal 0 -1 0
    outer loop
      vertex 18 0 1
      vertex 2.9 0 2
      vertex 2 0 1
    endloop
  endfacet
  facet normal 0 -1 0
    outer loop
      vertex 0.690598 0 5.5
      vertex 2 0 1
      vertex 2.9 0 2
    endloop
  endfacet
  facet normal 0 -1 0
    outer loop
      vertex 0 0 0
      vertex 0.690598 0 5.5
      vertex 0 0 8
    endloop
  endfacet
  facet normal 0 -1 0
    outer loop
      vertex 0 0 0
      vertex 2 0 1
      vertex 0.690598 0 5.5
    endloop
  endfacet
  facet normal 0 -1 -0
    outer loop
      vertex 2 0 1
      vertex 0 0 0
      vertex 2 0 0
    endloop
  endfacet
  facet normal 0 -1 0
    outer loop
      vertex 19.3094 0 7
      vertex 20 0 8
      vertex 0.690598 0 7
    endloop
  endfacet
  facet normal 0 -1 0
    outer loop
      vertex 19.3094 0 5.5
      vertex 20 0 8
      vertex 19.3094 0 7
    endloop
  endfacet
  facet normal 0 -1 0
    outer loop
      vertex 2.9 0 2
      vertex 18 0 1
      vertex 17.3 0 2
    endloop
  endfacet
  facet normal 0 -1 0
    outer loop
      vertex 18 0 1
      vertex 19.3094 0 5.5
      vertex 17.3 0 2
    endloop
  endfacet
  facet normal 0 -1 0
    outer loop
      vertex 20 0 0
      vertex 18 0 1
      vertex 18 0 0
    endloop
  endfacet
  facet normal 0 -1 0
    outer loop
      vertex 18 0 1
      vertex 20 0 0
      vertex 19.3094 0 5.5
    endloop
  endfacet
  facet normal 0 -1 0
    outer loop
      vertex 19.3094 0 5.5
      vertex 20 0 0
      vertex 20 0 8
    endloop
  endfacet
  facet normal 0 1 0
    outer loop
      vertex 2.9 45 5.5
      vertex 2.9 45 2
      vertex 0.556624 45 5.5
    endloop
  endfacet
  facet normal 0 1 0
    outer loop
      vertex 20 45 8
      vertex 19.4434 45 7
      vertex 0 45 8
    endloop
  endfacet
  facet normal 0 1 0
    outer loop
      vertex 20 45 8
      vertex 19.4434 45 5.5
      vertex 19.4434 45 7
    endloop
  endfacet
  facet normal 0 1 0
    outer loop
      vertex 19.4434 45 5.5
      vertex 17.3 45 2
      vertex 17.3 45 5.5
    endloop
  endfacet
  facet normal 0 1 0
    outer loop
      vertex 17.3 45 2
      vertex 18 45 1
      vertex 2.9 45 2
    endloop
  endfacet
  facet normal 0 1 0
    outer loop
      vertex 19.4434 45 5.5
      vertex 18 45 1
      vertex 17.3 45 2
    endloop
  endfacet
  facet normal 0 1 -0
    outer loop
      vertex 20 45 0
      vertex 19.4434 45 5.5
      vertex 20 45 8
    endloop
  endfacet
  facet normal 0 1 0
    outer loop
      vertex 20 45 0
      vertex 18 45 1
      vertex 19.4434 45 5.5
    endloop
  endfacet
  facet normal 0 1 0
    outer loop
      vertex 18 45 1
      vertex 20 45 0
      vertex 18 45 0
    endloop
  endfacet
  facet normal 0 1 -0
    outer loop
      vertex 0.556624 45 7
      vertex 0 45 8
      vertex 19.4434 45 7
    endloop
  endfacet
  facet normal 0 1 -0
    outer loop
      vertex 0.556624 45 5.5
      vertex 0 45 8
      vertex 0.556624 45 7
    endloop
  endfacet
  facet normal 0 1 0
    outer loop
      vertex 2 45 1
      vertex 2.9 45 2
      vertex 18 45 1
    endloop
  endfacet
  facet normal 0 1 -0
    outer loop
      vertex 2 45 1
      vertex 0.556624 45 5.5
      vertex 2.9 45 2
    endloop
  endfacet
  facet normal 0 1 0
    outer loop
      vertex 0 45 0
      vertex 2 45 1
      vertex 2 45 0
    endloop
  endfacet
  facet normal 0 1 0
    outer loop
      vertex 0.556624 45 5.5
      vertex 0 45 0
      vertex 0 45 8
    endloop
  endfacet
  facet normal 0 1 0
    outer loop
      vertex 2 45 1
      vertex 0 45 0
      vertex 0.556624 45 5.5
    endloop
  endfacet
  facet normal 0 0 1
    outer loop
      vertex 18.3 30.9864 10
      vertex 20 36 10
      vertex 18.3 34.495 10
    endloop
  endfacet
  facet normal 0 0 1
    outer loop
      vertex 20 36 10
      vertex 1.9 34.495 10
      vertex 18.3 34.495 10
    endloop
  endfacet
  facet normal 0 0 1
    outer loop
      vertex 1.9 34.495 10
      vertex 0 36 10
      vertex 1.9 30.9864 10
    endloop
  endfacet
  facet normal -0 0 1
    outer loop
      vertex 0 36 10
      vertex 1.9 34.495 10
      vertex 20 36 10
    endloop
  endfacet
  facet normal 0 0 1
    outer loop
      vertex 20 36 10
      vertex 18.3 30.9864 10
      vertex 20 26 10
    endloop
  endfacet
  facet normal -0 0 1
    outer loop
      vertex 1.9 30.9864 10
      vertex 20 26 10
      vertex 18.3 30.9864 10
    endloop
  endfacet
  facet normal 0 0 1
    outer loop
      vertex 1.9 30.9864 10
      vertex 0 26 10
      vertex 20 26 10
    endloop
  endfacet
  facet normal 0 0 1
    outer loop
      vertex 0 26 10
      vertex 1.9 30.9864 10
      vertex 0 36 10
    endloop
  endfacet
  facet normal 0 1 -0
    outer loop
      vertex 20 36 8
      vertex 0 36 10
      vertex 20 36 10
    endloop
  endfacet
  facet normal 0 1 0
    outer loop
      vertex 0 36 10
      vertex 20 36 8
      vertex 0 36 8
    endloop
  endfacet
  facet normal 0 -1 0
    outer loop
      vertex 0 26 10
      vertex 1.9 26 9.2
      vertex 20 26 10
    endloop
  endfacet
  facet normal 0 -1 0
    outer loop
      vertex 0 26 8
      vertex 1.9 26 9.2
      vertex 0 26 10
    endloop
  endfacet
  facet normal 0 -1 -0
    outer loop
      vertex 1.9 26 9.2
      vertex 0 26 8
      vertex 1.9 26 8
    endloop
  endfacet
  facet normal 0 -1 0
    outer loop
      vertex 18.3 26 9.2
      vertex 20 26 10
      vertex 1.9 26 9.2
    endloop
  endfacet
  facet normal 0 -1 0
    outer loop
      vertex 20 26 8
      vertex 18.3 26 9.2
      vertex 18.3 26 8
    endloop
  endfacet
  facet normal 0 -1 0
    outer loop
      vertex 18.3 26 9.2
      vertex 20 26 8
      vertex 20 26 10
    endloop
  endfacet
  facet normal -1 0 0
    outer loop
      vertex 2 -1.5 0
      vertex 2 0 1
      vertex 2 0 0
    endloop
  endfacet
  facet normal -1 -0 0
    outer loop
      vertex 2 0 1
      vertex 2 -1.5 0
      vertex 2 -1.5 1
    endloop
  endfacet
  facet normal -1 0 0
    outer loop
      vertex 2 45 0
      vertex 2 46.5 1
      vertex 2 46.5 0
    endloop
  endfacet
  facet normal -1 -0 0
    outer loop
      vertex 2 46.5 1
      vertex 2 45 0
      vertex 2 45 1
    endloop
  endfacet
  facet normal -0 0 1
    outer loop
      vertex 2 0 1
      vertex 18 -1.5 1
      vertex 18 0 1
    endloop
  endfacet
  facet normal 0 0 1
    outer loop
      vertex 18 -1.5 1
      vertex 2 0 1
      vertex 2 -1.5 1
    endloop
  endfacet
  facet normal -0 0 1
    outer loop
      vertex 2 46.5 1
      vertex 18 45 1
      vertex 18 46.5 1
    endloop
  endfacet
  facet normal 0 0 1
    outer loop
      vertex 18 45 1
      vertex 2 46.5 1
      vertex 2 45 1
    endloop
  endfacet
  facet normal 1 -0 0
    outer loop
      vertex 18 -1.5 1
      vertex 18 0 0
      vertex 18 0 1
    endloop
  endfacet
  facet normal 1 0 0
    outer loop
      vertex 18 0 0
      vertex 18 -1.5 1
      vertex 18 -1.5 0
    endloop
  endfacet
  facet normal 1 -0 0
    outer loop
      vertex 18 45 1
      vertex 18 46.5 0
      vertex 18 46.5 1
    endloop
  endfacet
  facet normal 1 0 0
    outer loop
      vertex 18 46.5 0
      vertex 18 45 1
      vertex 18 45 0
    endloop
  endfacet
  facet normal 0 1 -0
    outer loop
      vertex 18 46.5 0
      vertex 2 46.5 1
      vertex 18 46.5 1
    endloop
  endfacet
  facet normal 0 1 0
    outer loop
      vertex 2 46.5 1
      vertex 18 46.5 0
      vertex 2 46.5 0
    endloop
  endfacet
  facet normal 0 -1 0
    outer loop
      vertex 2 -1.5 0
      vertex 18 -1.5 1
      vertex 2 -1.5 1
    endloop
  endfacet
  facet normal 0 -1 -0
    outer loop
      vertex 18 -1.5 1
      vertex 2 -1.5 0
      vertex 18 -1.5 0
    endloop
  endfacet
  facet normal -0.866026 -0.5 0
    outer loop
      vertex 19.3094 0 5.5
      vertex 18.2 1.92154 7
      vertex 18.2 1.92154 5.5
    endloop
  endfacet
  facet normal -0.866026 -0.5 0
    outer loop
      vertex 18.2 1.92154 7
      vertex 19.3094 0 5.5
      vertex 19.3094 0 7
    endloop
  endfacet
  facet normal 0 0 -1
    outer loop
      vertex 18.2 1.92154 7
      vertex 1.8 1.92154 7
      vertex 18.2 3 7
    endloop
  endfacet
  facet normal 0 0 -1
    outer loop
      vertex 19.3094 0 7
      vertex 1.8 1.92154 7
      vertex 18.2 1.92154 7
    endloop
  endfacet
  facet normal 0 -0 -1
    outer loop
      vertex 1.8 1.92154 7
      vertex 19.3094 0 7
      vertex 0.690598 0 7
    endloop
  endfacet
  facet normal -0 0 -1
    outer loop
      vertex 18.2 3 7
      vertex 1.8 1.92154 7
      vertex 1.8 3 7
    endloop
  endfacet
  facet normal 0 0 -1
    outer loop
      vertex 18.2 23 7
      vertex 1.8 23 7
      vertex 18.2 42.8464 7
    endloop
  endfacet
  facet normal 0 0 -1
    outer loop
      vertex 1.8 42.8464 7
      vertex 18.2 42.8464 7
      vertex 1.8 23 7
    endloop
  endfacet
  facet normal 0 0 -1
    outer loop
      vertex 18.2 42.8464 7
      vertex 1.8 42.8464 7
      vertex 19.4434 45 7
    endloop
  endfacet
  facet normal -0 0 -1
    outer loop
      vertex 19.4434 45 7
      vertex 1.8 42.8464 7
      vertex 0.556624 45 7
    endloop
  endfacet
  facet normal -0 0 1
    outer loop
      vertex 0 23 7
      vertex 1.8 3 7
      vertex 1.8 23 7
    endloop
  endfacet
  facet normal 0 0 1
    outer loop
      vertex 1.8 3 7
      vertex 0 23 7
      vertex 0 3 7
    endloop
  endfacet
  facet normal -0 0 1
    outer loop
      vertex 18.2 23 7
      vertex 20 3 7
      vertex 20 23 7
    endloop
  endfacet
  facet normal 0 0 1
    outer loop
      vertex 20 3 7
      vertex 18.2 23 7
      vertex 18.2 3 7
    endloop
  endfacet
  facet normal 0 0 1
    outer loop
      vertex 17.3 0 5.5
      vertex 18.2 42.8464 5.5
      vertex 17.3 45 5.5
    endloop
  endfacet
  facet normal -0 0 1
    outer loop
      vertex 17.3 45 5.5
      vertex 18.2 42.8464 5.5
      vertex 19.4434 45 5.5
    endloop
  endfacet
  facet normal 0 0 1
    outer loop
      vertex 18.2 1.92154 5.5
      vertex 17.3 0 5.5
      vertex 19.3094 0 5.5
    endloop
  endfacet
  facet normal 0 0 1
    outer loop
      vertex 18.2 42.8464 5.5
      vertex 17.3 0 5.5
      vertex 18.2 1.92154 5.5
    endloop
  endfacet
  facet normal 0 0 1
    outer loop
      vertex 2.9 45 5.5
      vertex 1.8 42.8464 5.5
      vertex 2.9 0 5.5
    endloop
  endfacet
  facet normal 0 -0 1
    outer loop
      vertex 1.8 42.8464 5.5
      vertex 2.9 45 5.5
      vertex 0.556624 45 5.5
    endloop
  endfacet
  facet normal -0 0 1
    outer loop
      vertex 1.8 1.92154 5.5
      vertex 2.9 0 5.5
      vertex 1.8 42.8464 5.5
    endloop
  endfacet
  facet normal 0 0 1
    outer loop
      vertex 2.9 0 5.5
      vertex 1.8 1.92154 5.5
      vertex 0.690598 0 5.5
    endloop
  endfacet
  facet normal 0.866025 -0.5 0
    outer loop
      vertex 0.690598 0 7
      vertex 1.8 1.92154 5.5
      vertex 1.8 1.92154 7
    endloop
  endfacet
  facet normal 0.866025 -0.5 0
    outer loop
      vertex 1.8 1.92154 5.5
      vertex 0.690598 0 7
      vertex 0.690598 0 5.5
    endloop
  endfacet
  facet normal -0.866026 0.5 0
    outer loop
      vertex 18.2 42.8464 5.5
      vertex 19.4434 45 7
      vertex 19.4434 45 5.5
    endloop
  endfacet
  facet normal -0.866026 0.5 0
    outer loop
      vertex 19.4434 45 7
      vertex 18.2 42.8464 5.5
      vertex 18.2 42.8464 7
    endloop
  endfacet
  facet normal 0.866025 0.5 0
    outer loop
      vertex 1.8 42.8464 7
      vertex 0.556624 45 5.5
      vertex 0.556624 45 7
    endloop
  endfacet
  facet normal 0.866025 0.5 0
    outer loop
      vertex 0.556624 45 5.5
      vertex 1.8 42.8464 7
      vertex 1.8 42.8464 5.5
    endloop
  endfacet
  facet normal 1 -0 0
    outer loop
      vertex 2.9 0 5.5
      vertex 2.9 45 2
      vertex 2.9 45 5.5
    endloop
  endfacet
  facet normal 1 0 0
    outer loop
      vertex 2.9 45 2
      vertex 2.9 0 5.5
      vertex 2.9 0 2
    endloop
  endfacet
  facet normal -1 0 0
    outer loop
      vertex 17.3 0 2
      vertex 17.3 45 5.5
      vertex 17.3 45 2
    endloop
  endfacet
  facet normal -1 -0 0
    outer loop
      vertex 17.3 45 5.5
      vertex 17.3 0 2
      vertex 17.3 0 5.5
    endloop
  endfacet
  facet normal -0 0 1
    outer loop
      vertex 2.9 45 2
      vertex 17.3 0 2
      vertex 17.3 45 2
    endloop
  endfacet
  facet normal 0 0 1
    outer loop
      vertex 17.3 0 2
      vertex 2.9 45 2
      vertex 2.9 0 2
    endloop
  endfacet
  facet normal 1 -0 0
    outer loop
      vertex 1.8 23 7
      vertex 1.8 42.8464 5.5
      vertex 1.8 42.8464 7
    endloop
  endfacet
  facet normal 1 0 0
    outer loop
      vertex 1.8 1.92154 5.5
      vertex 1.8 23 7
      vertex 1.8 3 7
    endloop
  endfacet
  facet normal 1 0 0
    outer loop
      vertex 1.8 1.92154 5.5
      vertex 1.8 3 7
      vertex 1.8 1.92154 7
    endloop
  endfacet
  facet normal 1 0 0
    outer loop
      vertex 1.8 23 7
      vertex 1.8 1.92154 5.5
      vertex 1.8 42.8464 5.5
    endloop
  endfacet
  facet normal -1 0 0
    outer loop
      vertex 18.2 42.8464 5.5
      vertex 18.2 23 7
      vertex 18.2 42.8464 7
    endloop
  endfacet
  facet normal -1 0 0
    outer loop
      vertex 18.2 1.92154 5.5
      vertex 18.2 23 7
      vertex 18.2 42.8464 5.5
    endloop
  endfacet
  facet normal -1 -0 0
    outer loop
      vertex 18.2 23 7
      vertex 18.2 1.92154 5.5
      vertex 18.2 3 7
    endloop
  endfacet
  facet normal -1 -0 0
    outer loop
      vertex 18.2 3 7
      vertex 18.2 1.92154 5.5
      vertex 18.2 1.92154 7
    endloop
  endfacet
  facet normal 0 -1 0
    outer loop
      vertex 1.8 23 7
      vertex 0 23 8
      vertex 0 23 7
    endloop
  endfacet
  facet normal 0 -1 0
    outer loop
      vertex 0 23 8
      vertex 1.8 23 7
      vertex 20 23 8
    endloop
  endfacet
  facet normal 0 -1 0
    outer loop
      vertex 18.2 23 7
      vertex 20 23 8
      vertex 1.8 23 7
    endloop
  endfacet
  facet normal 0 -1 -0
    outer loop
      vertex 20 23 8
      vertex 18.2 23 7
      vertex 20 23 7
    endloop
  endfacet
  facet normal 0 1 0
    outer loop
      vertex 18.2 3 7
      vertex 20 3 8
      vertex 20 3 7
    endloop
  endfacet
  facet normal 0 1 0
    outer loop
      vertex 20 3 8
      vertex 18.2 3 7
      vertex 0 3 8
    endloop
  endfacet
  facet normal 0 1 -0
    outer loop
      vertex 1.8 3 7
      vertex 0 3 8
      vertex 18.2 3 7
    endloop
  endfacet
  facet normal 0 1 0
    outer loop
      vertex 0 3 8
      vertex 1.8 3 7
      vertex 0 3 7
    endloop
  endfacet
  facet normal 1 -0 0
    outer loop
      vertex 1.9 30.9864 10
      vertex 1.9 29 8
      vertex 1.9 34.495 10
    endloop
  endfacet
  facet normal 1 -0 0
    outer loop
      vertex 1.9 28.7884 9.2
      vertex 1.9 29 8
      vertex 1.9 30.9864 10
    endloop
  endfacet
  facet normal 1 0 0
    outer loop
      vertex 1.9 26 8
      vertex 1.9 28.7884 9.2
      vertex 1.9 26 9.2
    endloop
  endfacet
  facet normal 1 0 0
    outer loop
      vertex 1.9 28.7884 9.2
      vertex 1.9 26 8
      vertex 1.9 29 8
    endloop
  endfacet
  facet normal 0 0 -1
    outer loop
      vertex 1.9 26 9.2
      vertex 18.3 28.7884 9.2
      vertex 18.3 26 9.2
    endloop
  endfacet
  facet normal -0 0 -1
    outer loop
      vertex 18.3 28.7884 9.2
      vertex 1.9 26 9.2
      vertex 1.9 28.7884 9.2
    endloop
  endfacet
  facet normal -1 0 0
    outer loop
      vertex 18.3 29 8
      vertex 18.3 30.9864 10
      vertex 18.3 34.495 10
    endloop
  endfacet
  facet normal -1 0 0
    outer loop
      vertex 18.3 29 8
      vertex 18.3 28.7884 9.2
      vertex 18.3 30.9864 10
    endloop
  endfacet
  facet normal -1 0 0
    outer loop
      vertex 18.3 26 8
      vertex 18.3 28.7884 9.2
      vertex 18.3 29 8
    endloop
  endfacet
  facet normal -1 -0 0
    outer loop
      vertex 18.3 28.7884 9.2
      vertex 18.3 26 8
      vertex 18.3 26 9.2
    endloop
  endfacet
  facet normal -0 0 1
    outer loop
      vertex 1.9 29 8
      vertex 18.3 26 8
      vertex 18.3 29 8
    endloop
  endfacet
  facet normal 0 0 1
    outer loop
      vertex 18.3 26 8
      vertex 1.9 29 8
      vertex 1.9 26 8
    endloop
  endfacet
  facet normal 0 0.34202 -0.939693
    outer loop
      vertex 1.9 28.7884 9.2
      vertex 18.3 30.9864 10
      vertex 18.3 28.7884 9.2
    endloop
  endfacet
  facet normal 0 0.34202 -0.939693
    outer loop
      vertex 18.3 30.9864 10
      vertex 1.9 28.7884 9.2
      vertex 1.9 30.9864 10
    endloop
  endfacet
  facet normal 0 -0.34202 0.939693
    outer loop
      vertex 1.9 34.495 10
      vertex 18.3 29 8
      vertex 18.3 34.495 10
    endloop
  endfacet
  facet normal 0 -0.34202 0.939693
    outer loop
      vertex 18.3 29 8
      vertex 1.9 34.495 10
      vertex 1.9 29 8
    endloop
  endfacet
endsolid OpenSCAD_Model
